<?xml version="1.0" standalone="no"?>
<!DOCTYPE svg PUBLIC "-//W3C//DTD SVG 20010904//EN"
 "http://www.w3.org/TR/2001/REC-SVG-20010904/DTD/svg10.dtd">
<svg version="1.0" xmlns="http://www.w3.org/2000/svg"
 width="512.000000pt" height="512.000000pt" viewBox="0 0 512.000000 512.000000"
 preserveAspectRatio="xMidYMid meet">
<metadata>
Created by potrace 1.14, written by Peter Selinger 2001-2017
</metadata>
<g transform="translate(0.000000,512.000000) scale(0.100000,-0.100000)"
fill="#000000" stroke="none">
<path d="M2837 4924 c-1 -1 -33 -4 -72 -8 -104 -10 -147 -15 -175 -21 -53 -11
-76 -16 -100 -21 -14 -3 -41 -10 -60 -16 -19 -7 -37 -13 -40 -13 -115 -29
-282 -105 -414 -190 -64 -41 -183 -135 -250 -199 -27 -26 -60 -49 -74 -53 -13
-3 -56 0 -95 7 -40 7 -109 14 -154 16 -78 3 -84 2 -130 -29 -68 -46 -105 -120
-100 -203 4 -82 28 -112 162 -204 112 -76 129 -97 119 -154 -13 -87 -19 -370
-10 -486 2 -25 7 -93 11 -152 l6 -107 -39 -25 c-77 -49 -204 -87 -332 -101
-71 -8 -348 -10 -477 -5 -136 7 -124 58 -122 -544 1 -616 11 -710 100 -978 98
-295 228 -518 402 -691 214 -211 458 -295 692 -237 50 12 100 28 112 36 20 12
26 10 78 -30 l56 -44 -35 -17 c-49 -23 -98 -91 -94 -130 2 -25 11 -34 51 -53
91 -43 212 -46 290 -5 58 30 73 61 40 83 -17 11 -17 11 0 6 22 -7 206 -43 262
-51 45 -7 94 -13 145 -20 198 -25 680 -25 820 -1 14 3 52 7 85 11 56 6 229 39
268 51 11 3 17 0 17 -10 0 -22 57 -58 114 -71 86 -19 189 -5 255 35 30 19 33
25 28 55 -6 38 -49 97 -83 115 -20 11 -16 17 80 113 110 110 178 205 237 333
57 123 105 294 124 444 3 25 8 56 10 70 6 27 14 150 16 241 1 46 5 57 23 65
39 17 66 72 66 133 0 94 -40 193 -82 205 -14 3 -18 16 -20 50 -1 25 -3 58 -4
74 -2 15 -5 61 -9 102 -3 41 -8 98 -10 125 -21 236 -25 451 -12 605 3 47 9
119 12 160 3 41 8 100 10 130 12 124 4 481 -10 527 -11 35 20 76 94 125 155
101 193 146 193 227 0 96 -65 194 -148 221 -36 12 -148 9 -204 -5 -14 -3 -52
-8 -85 -11 l-60 -4 -78 72 c-213 198 -481 336 -777 403 -58 13 -127 26 -155
29 -27 4 -70 9 -95 12 -39 6 -367 13 -373 8z"/>
</g>
</svg>
